<svg id="REVISI_ICON_LINE" viewBox="0 0 256 256" xmlns="http://www.w3.org/2000/svg" data-name="REVISI ICON LINE"><path d="m238.25 49.42c-.25-13.27-8.83-17.67-13.33-18.15h-17.59v-5.94a9 9 0 0 0 -9-9h-144a9 9 0 0 0 -9 9v6.77c-.33-.04-8.83-.1-8.83-.1a9 9 0 0 0 -9 9v11.29a9 9 0 0 0 9 9s8.5 0 8.83-.06v6.77a9 9 0 0 0 9 9h144a9 9 0 0 0 9-9v-12.33s6.25-.2 6.25 4.1v27.34a2 2 0 0 1 -.52 1.27c-.88.92-3 1.42-5.71 1.39-10.83-.13-74.63 0-78.84 0a13.34 13.34 0 0 0 -9.72 2.91c-1.82 1.59-4 4.61-4 9.95v61s-10-.86-10 8.79v68.08a8.91 8.91 0 0 0 9 8.79h25a8.9 8.9 0 0 0 9-8.79v-68.04c0-8.83-9.33-8.79-9.33-8.79v-43.67c0-4.6 4.25-5.37 5.66-5.5 3.6 0 68.93-.24 79.75 0a13.19 13.19 0 0 0 10.19-3.92c4.38-4.62 4.23-11.51 4.15-13 .06-2.42.28-35.44.04-48.16zm-193.92 3.87h-7.83a1 1 0 0 1 -1-1v-11.29a1 1 0 0 1 1-1h7.83a1 1 0 0 1 1 1v11.29a1 1 0 0 1 -1 1zm155 14.71a1 1 0 0 1 -1 1h-144a1 1 0 0 1 -1-1v-42.67a1 1 0 0 1 1-1h144a1 1 0 0 1 1 1zm-59.5 104.46v68.08a.92.92 0 0 1 -1 .79h-25a.93.93 0 0 1 -1-.79v-68.08a.93.93 0 0 1 1-.79h25a.92.92 0 0 1 1 .79zm90.43-74.46c.09 1.29-.1 5.09-2 7.06a5.31 5.31 0 0 1 -4.19 1.4c-11.17-.25-80.34 0-80.34 0-4.58.28-13.25 3.46-13.25 13.49v43.67h-7.67v-61c0-1.87.42-3.18 1.23-3.91a5.53 5.53 0 0 1 3.74-1s68.39-.1 79.48 0c5.34.07 9.36-1.33 11.86-4.16a9.92 9.92 0 0 0 2.44-7.11c0-2.12 0-19.87 0-27 0-11.62-14.25-11.83-14.25-11.83v-8.36h16.88c.89.17 5.87 1.53 6 10.33.31 13.04.07 48.42.07 48.42z"/></svg>